<svg width="200" height="200" viewBox="0 0 200 200" fill="none" xmlns="http://www.w3.org/2000/svg">
<rect x="1.5" y="1.5" width="197" height="197" stroke="#277EBC" stroke-width="3"/>
<path d="M169.917 43.3333V85.8333M169.917 85.8333H127.417M169.917 85.8333L137.121 54.95C127.35 45.1731 114.667 38.8367 100.981 36.8956C87.2961 34.9545 73.3507 37.5138 61.2466 44.1879C49.1425 50.8619 39.5354 61.2892 33.8731 73.8984C28.2108 86.5076 26.8 100.615 29.8533 114.096C32.9067 127.577 40.2587 139.7 50.8015 148.639C61.3443 157.578 74.5068 162.848 88.3054 163.655C102.104 164.462 115.791 160.763 127.304 153.114C138.818 145.466 147.533 134.283 152.137 121.25" stroke="#277EBC" stroke-width="4" stroke-linecap="round" stroke-linejoin="round"/>
</svg>
